<mxfile host="app.diagrams.net" modified="2024-08-15T12:10:01.015Z" agent="Mozilla/5.0 (Macintosh; Intel Mac OS X 10_15_7) AppleWebKit/537.36 (KHTML, like Gecko) Chrome/127.0.0.0 Safari/537.36" version="24.7.3" etag="OuZGLKXxMrmh_ZUO0rTK" type="github">
  <diagram name="第 1 页" id="NyUh1yyV36GHHRMd1uLf">
    <mxGraphModel>
      <root>
        <mxCell id="0" />
        <mxCell id="1" parent="0" />
      </root>
    </mxGraphModel>
  </diagram>
</mxfile>
